{
  "accessors": [
    {
      "bufferView": 2,
      "componentType": 5126,
      "count": 11130,
      "max": [
        1.7096351385116577,
        0.78821808099746704,
        0.44101318717002869
      ],
      "min": [
        -1.7248042821884155,
        -0.79889917373657227,
        -0.43649682402610779
      ],
      "type": "VEC3"
    },
    {
      "bufferView": 2,
      "byteOffset": 133560,
      "componentType": 5126,
      "count": 11130,
      "max": [
        0.99995112419128418,
        0.99998891353607178,
        0.99999487400054932
      ],
      "min": [
        -0.99997389316558838,
        -0.99999547004699707,
        -0.99999535083770752
      ],
      "type": "VEC3"
    },
    {
      "bufferView": 3,
      "componentType": 5126,
      "count": 11130,
      "max": [
        0.99410295486450195,
        0.99999433755874634,
        0.9999997615814209,
        1
      ],
      "min": [
        -0.99180310964584351,
        -0.99474799633026123,
        -0.99179589748382568,
        -1
      ],
      "type": "VEC4"
    },
    {
      "bufferView": 1,
      "componentType": 5126,
      "count": 11130,
      "max": [
        1,
        1
      ],
      "min": [
        0,
        0
      ],
      "type": "VEC2"
    },
    {
      "bufferView": 0,
      "componentType": 5125,
      "count": 58170,
      "max": [
        11129
      ],
      "min": [
        0
      ],
      "type": "SCALAR"
    }
  ],
  "asset": {
    "extras": {
      "author": "pasquill (https://sketchfab.com/pasquill)",
      "license": "CC-BY-4.0 (http://creativecommons.org/licenses/by/4.0/)",
      "source": "https://sketchfab.com/models/5f7758009c0b4599a36ecb2114c1a6a7",
      "title": "12th -14th century building brick"
    },
    "generator": "Sketchfab-3.19.6",
    "version": "2.0"
  },
  "bufferViews": [
    {
      "buffer": 0,
      "byteLength": 232680,
      "byteOffset": 0,
      "name": "floatBufferViews",
      "target": 34963
    },
    {
      "buffer": 0,
      "byteLength": 89040,
      "byteOffset": 232680,
      "byteStride": 8,
      "name": "floatBufferViews",
      "target": 34962
    },
    {
      "buffer": 0,
      "byteLength": 267120,
      "byteOffset": 321720,
      "byteStride": 12,
      "name": "floatBufferViews",
      "target": 34962
    },
    {
      "buffer": 0,
      "byteLength": 178080,
      "byteOffset": 588840,
      "byteStride": 16,
      "name": "floatBufferViews",
      "target": 34962
    }
  ],
  "buffers": [
    {
      "byteLength": 766920,
      "uri": "scene.bin"
    }
  ],
  "images": [
    {
      "uri": "textures/Material_normal.png"
    },
    {
      "uri": "textures/Material_baseColor.png"
    }
  ],
  "materials": [
    {
      "doubleSided": true,
      "emissiveFactor": [
        0,
        0,
        0
      ],
      "name": "Material",
      "normalTexture": {
        "index": 0,
        "scale": 1,
        "texCoord": 0
      },
      "pbrMetallicRoughness": {
        "baseColorFactor": [
          1,
          1,
          1,
          1
        ],
        "baseColorTexture": {
          "index": 1,
          "texCoord": 0
        },
        "metallicFactor": 0,
        "roughnessFactor": 0.95770514949999996
      }
    }
  ],
  "meshes": [
    {
      "name": "rock_Material_0",
      "primitives": [
        {
          "attributes": {
            "NORMAL": 1,
            "POSITION": 0,
            "TANGENT": 2,
            "TEXCOORD_0": 3
          },
          "indices": 4,
          "material": 0,
          "mode": 4
        }
      ]
    }
  ],
  "nodes": [
    {
      "children": [
        1
      ],
      "name": "RootNode (gltf orientation matrix)",
      "rotation": [
        -0.70710678118654746,
        -0,
        -0,
        0.70710678118654757
      ]
    },
    {
      "children": [
        2
      ],
      "name": "RootNode (model correction matrix)"
    },
    {
      "children": [
        3
      ],
      "matrix": [
        1,
        0,
        0,
        0,
        0,
        0,
        1,
        0,
        0,
        -1,
        0,
        0,
        0,
        0,
        0,
        1
      ],
      "name": "b9c3c3d25ba346189e358e480c416191.fbx"
    },
    {
      "children": [
        4
      ],
      "name": "RootNode"
    },
    {
      "children": [
        5
      ],
      "matrix": [
        0.092870712280273438,
        0,
        0,
        0,
        0,
        -1.5130559540305449e-08,
        -0.092870712280272216,
        0,
        0,
        0.092870712280272216,
        -1.5130559540305449e-08,
        0,
        0,
        0,
        0,
        1
      ],
      "name": "rock"
    },
    {
      "mesh": 0,
      "name": "rock_Material_0"
    }
  ],
  "samplers": [
    {
      "magFilter": 9729,
      "minFilter": 9987,
      "wrapS": 10497,
      "wrapT": 10497
    }
  ],
  "scene": 0,
  "scenes": [
    {
      "name": "OSG_Scene",
      "nodes": [
        0
      ]
    }
  ],
  "textures": [
    {
      "sampler": 0,
      "source": 0
    },
    {
      "sampler": 0,
      "source": 1
    }
  ]
}

